<!DOCTYPE svg PUBLIC "-//W3C//DTD SVG 1.1//EN" "http://www.w3.org/Graphics/SVG/1.1/DTD/svg11.dtd">
<!-- Uploaded to: SVG Repo, www.svgrepo.com, Transformed by: SVG Repo Mixer Tools -->
<svg width="800px" height="800px" viewBox="-3.6 -3.6 31.20 31.20" fill="none" xmlns="http://www.w3.org/2000/svg" transform="rotate(0)matrix(1, 0, 0, 1, 0, 0)">
<g id="SVGRepo_bgCarrier" stroke-width="0" transform="translate(0.2400000000000002,0.2400000000000002), scale(0.98)">
<rect x="-3.6" y="-3.6" width="31.20" height="31.20" rx="7.4879999999999995" fill="#141414" strokewidth="0"/>
</g>
<g id="SVGRepo_tracerCarrier" stroke-linecap="round" stroke-linejoin="round" stroke="#CCCCCC" stroke-width="0.048"/>
<g id="SVGRepo_iconCarrier"> <g id="style=fill"> <g id="menu-hotdog"> <path id="Subtract" fill-rule="evenodd" clip-rule="evenodd" d="M7.25 1.25C3.93629 1.25 1.25 3.93629 1.25 7.25V16.75C1.25 20.0637 3.93629 22.75 7.25 22.75H16.75C20.0637 22.75 22.75 20.0637 22.75 16.75V7.25C22.75 3.93629 20.0637 1.25 16.75 1.25H7.25ZM6.69231 7C6.44803 7 6.25 7.33579 6.25 7.75C6.25 8.16421 6.44803 8.5 6.69231 8.5H17.3077C17.552 8.5 17.75 8.16421 17.75 7.75C17.75 7.33579 17.552 7 17.3077 7H6.69231ZM4.25 12.25C4.25 11.8358 4.51691 11.5 4.84615 11.5H19.1538C19.4831 11.5 19.75 11.8358 19.75 12.25C19.75 12.6642 19.4831 13 19.1538 13H4.84615C4.51691 13 4.25 12.6642 4.25 12.25ZM6.69231 16C6.44803 16 6.25 16.3358 6.25 16.75C6.25 17.1642 6.44803 17.5 6.69231 17.5H17.3077C17.552 17.5 17.75 17.1642 17.75 16.75C17.75 16.3358 17.552 16 17.3077 16H6.69231Z" fill="#78c68e"/> </g> </g> </g>
</svg>